<?xml version="1.0" encoding="utf-8"?><!-- Uploaded to: SVG Repo, www.svgrepo.com, Generator: SVG Repo Mixer Tools -->
<svg width="40px" height="40px" viewBox="0 0 64 64" xmlns="http://www.w3.org/2000/svg" xmlns:xlink="http://www.w3.org/1999/xlink" aria-hidden="true" role="img" class="iconify iconify--emojione-monotone" preserveAspectRatio="xMidYMid meet"><path d="M32 2C15.432 2 2 15.432 2 32s13.432 30 30 30s30-13.432 30-30S48.568 2 32 2m0 2c8.279 0 15.729 3.615 20.859 9.347v37.307c-.348.388-.701.769-1.069 1.137L12.21 12.21C17.28 7.141 24.28 4 32 4M10.346 18.208l.913-2.925l.913 2.925l2.929.01l-2.365 1.817l.897 2.933l-2.374-1.804l-2.375 1.804l.897-2.933l-2.209-1.697l.07-.121l2.704-.009m30.18 31.651l-2.374-1.802l-2.375 1.802l.897-2.931l-2.365-1.816l2.929-.01l.914-2.927l.914 2.927l2.928.01l-2.365 1.816l.897 2.931m-7.62-9.654l.896 2.933l-2.374-1.804l-2.375 1.804l.897-2.933l-2.365-1.817l2.93-.01l.913-2.925l.913 2.925l2.93.01l-2.365 1.817m-6.723-6.723l.897 2.931l-2.375-1.803l-2.375 1.803l.897-2.931l-2.364-1.818l2.928-.01l.914-2.925l.914 2.925l2.928.01l-2.364 1.818m-6.724-6.723l.897 2.931l-2.375-1.802l-2.374 1.802l.897-2.931l-2.364-1.817l2.928-.009l.913-2.926l.915 2.926l2.928.009l-2.365 1.817M44.875 54.78L42.5 56.584l.898-2.932l-2.365-1.818l2.928-.01l.914-2.925l.914 2.925l2.928.01l-2.364 1.818l.611 1.996c-.172.109-.341.221-.515.326l-1.574-1.194" fill="#000000"></path></svg>